Wild Onions S01E08 aired 4/11/2011
The record-breaking summer heat and the likelihood of blackouts send the Chicago Police Department into the streets in full force to temper the city's escalating violence. Alongside her new driver, Superintendent Teresa Colvin finds herself back in the field while Detectives Wysocki and Evers take over an emotional case in which a son witnessed his father's fatal shooting. Meanwhile, Alderman Gibbons enlists Liam to help keep his constituents cool.

General
Complete name                    : The Chicago Code S01E08 HDTV_JHW.mp4
Format                           : MPEG-4
Format profile                   : Base Media / Version 2
Codec ID                         : mp42
File size                        : 346 MiB
Duration                         : 43mn 38s
Overall bit rate                 : 1 107 Kbps
Encoded date                     : UTC 2011-04-11 03:43:45
Tagged date                      : UTC 2011-04-11 03:43:45
Writing library                  : AVS 

Video
ID                               : 1
Format                           : AVC
Format/Info                      : Advanced Video Codec
Format profile                   : Main@L5.1
Format settings, CABAC           : Yes
Format settings, ReFrames        : 2 frames
Format settings, GOP             : M=3, N=5
Codec ID                         : avc1
Codec ID/Info                    : Advanced Video Coding
Duration                         : 43mn 38s
Bit rate mode                    : Variable
Bit rate                         : 991 Kbps
Width                            : 720 pixels
Height                           : 400 pixels
Display aspect ratio             : 16:9
Frame rate mode                  : Constant
Frame rate                       : 29.970 fps
Color space                      : YUV
Chroma subsampling               : 4:2:0
Bit depth                        : 8 bits
Scan type                        : Progressive
Bits/(Pixel*Frame)               : 0.115
Stream size                      : 309 MiB (89%)
Language                         : English
Encoded date                     : UTC 2011-04-11 03:43:45
Tagged date                      : UTC 2011-04-11 03:43:45

Audio
ID                               : 2
Format                           : AAC
Format/Info                      : Advanced Audio Codec
Format profile                   : LC
Codec ID                         : 40
Duration                         : 43mn 37s
Bit rate mode                    : Constant
Bit rate                         : 108 Kbps
Nominal bit rate                 : 96.0 Kbps
Channel(s)                       : 2 channels
Channel positions                : Front: L R
Sampling rate                    : 48.0 KHz
Compression mode                 : Lossy
Stream size                      : 33.6 MiB (10%)
Language                         : English
Encoded date                     : UTC 2011-04-11 03:43:45
Tagged date                      : UTC 2011-04-11 03:43:45